<?xml version="1.0" encoding="UTF-8" standalone="no"?>
<!DOCTYPE svg PUBLIC "-//W3C//DTD SVG 1.1//EN"
 "http://www.w3.org/Graphics/SVG/1.1/DTD/svg11.dtd">
<!-- Generated by graphviz version 2.43.0 (0)
 -->
<!-- Title: controllers_diagram Pages: 1 -->
<svg width="498pt" height="465pt"
 viewBox="0.00 0.00 498.00 465.00" xmlns="http://www.w3.org/2000/svg" xmlns:xlink="http://www.w3.org/1999/xlink">
<g id="graph0" class="graph" transform="scale(1 1) rotate(0) translate(4 461)">
<title>controllers_diagram</title>
<polygon fill="transparent" stroke="transparent" points="-4,4 -4,-461 494,-461 494,4 -4,4"/>
<!-- _diagram_info -->
<g id="node1" class="node">
<title>_diagram_info</title>
<text text-anchor="start" x="239" y="-63.6" font-family="Times,serif" font-size="13.00">Controllers diagram</text>
<text text-anchor="start" x="239" y="-49.6" font-family="Times,serif" font-size="13.00">Date: Sep 05 2024 &#45; 15:06</text>
<text text-anchor="start" x="239" y="-35.6" font-family="Times,serif" font-size="13.00">Migration version: 20240814163052</text>
<text text-anchor="start" x="239" y="-21.6" font-family="Times,serif" font-size="13.00">Generated by RailRoady 1.6.0</text>
<text text-anchor="start" x="239" y="-7.6" font-family="Times,serif" font-size="13.00">http://railroady.prestonlee.com</text>
</g>
<!-- ApplicationController -->
<g id="node2" class="node">
<title>ApplicationController</title>
<path fill="none" stroke="black" d="M243,-126.5C243,-126.5 470,-126.5 470,-126.5 476,-126.5 482,-132.5 482,-138.5 482,-138.5 482,-222.5 482,-222.5 482,-228.5 476,-234.5 470,-234.5 470,-234.5 243,-234.5 243,-234.5 237,-234.5 231,-228.5 231,-222.5 231,-222.5 231,-138.5 231,-138.5 231,-132.5 237,-126.5 243,-126.5"/>
<text text-anchor="middle" x="356.5" y="-219.3" font-family="Times,serif" font-size="14.00">ApplicationController</text>
<polyline fill="none" stroke="black" points="231,-211.5 482,-211.5 "/>
<polyline fill="none" stroke="black" points="231,-187.5 482,-187.5 "/>
<text text-anchor="start" x="239" y="-172.3" font-family="Times,serif" font-size="14.00">configure_permitted_parameters</text>
<polyline fill="none" stroke="black" points="231,-164.5 482,-164.5 "/>
<text text-anchor="start" x="239" y="-149.3" font-family="Times,serif" font-size="14.00">_layout</text>
<text text-anchor="start" x="239" y="-134.3" font-family="Times,serif" font-size="14.00">_layout_from_proc</text>
</g>
<!-- PagesController -->
<g id="node3" class="node">
<title>PagesController</title>
<path fill="none" stroke="black" d="M264,-273.5C264,-273.5 412,-273.5 412,-273.5 418,-273.5 424,-279.5 424,-285.5 424,-285.5 424,-444.5 424,-444.5 424,-450.5 418,-456.5 412,-456.5 412,-456.5 264,-456.5 264,-456.5 258,-456.5 252,-450.5 252,-444.5 252,-444.5 252,-285.5 252,-285.5 252,-279.5 258,-273.5 264,-273.5"/>
<text text-anchor="middle" x="338" y="-441.3" font-family="Times,serif" font-size="14.00">PagesController</text>
<polyline fill="none" stroke="black" points="252,-433.5 424,-433.5 "/>
<text text-anchor="start" x="260" y="-418.3" font-family="Times,serif" font-size="14.00">about</text>
<text text-anchor="start" x="260" y="-403.3" font-family="Times,serif" font-size="14.00">home</text>
<text text-anchor="start" x="260" y="-388.3" font-family="Times,serif" font-size="14.00">profile</text>
<text text-anchor="start" x="260" y="-373.3" font-family="Times,serif" font-size="14.00">report</text>
<polyline fill="none" stroke="black" points="252,-365.5 424,-365.5 "/>
<polyline fill="none" stroke="black" points="252,-341.5 424,-341.5 "/>
<text text-anchor="start" x="260" y="-326.3" font-family="Times,serif" font-size="14.00">_layout</text>
<text text-anchor="start" x="260" y="-311.3" font-family="Times,serif" font-size="14.00">_layout_from_proc</text>
<text text-anchor="start" x="260" y="-296.3" font-family="Times,serif" font-size="14.00">example_transactions</text>
<text text-anchor="start" x="260" y="-281.3" font-family="Times,serif" font-size="14.00">perform_calculations</text>
</g>
<!-- TransactionsController -->
<g id="node4" class="node">
<title>TransactionsController</title>
<path fill="none" stroke="black" d="M12,-0.5C12,-0.5 169,-0.5 169,-0.5 175,-0.5 181,-6.5 181,-12.5 181,-12.5 181,-216.5 181,-216.5 181,-222.5 175,-228.5 169,-228.5 169,-228.5 12,-228.5 12,-228.5 6,-228.5 0,-222.5 0,-216.5 0,-216.5 0,-12.5 0,-12.5 0,-6.5 6,-0.5 12,-0.5"/>
<text text-anchor="middle" x="90.5" y="-213.3" font-family="Times,serif" font-size="14.00">TransactionsController</text>
<polyline fill="none" stroke="black" points="0,-205.5 181,-205.5 "/>
<text text-anchor="start" x="8" y="-190.3" font-family="Times,serif" font-size="14.00">create</text>
<text text-anchor="start" x="8" y="-175.3" font-family="Times,serif" font-size="14.00">destroy</text>
<text text-anchor="start" x="8" y="-160.3" font-family="Times,serif" font-size="14.00">edit</text>
<text text-anchor="start" x="8" y="-145.3" font-family="Times,serif" font-size="14.00">index</text>
<text text-anchor="start" x="8" y="-130.3" font-family="Times,serif" font-size="14.00">new</text>
<text text-anchor="start" x="8" y="-115.3" font-family="Times,serif" font-size="14.00">show</text>
<text text-anchor="start" x="8" y="-100.3" font-family="Times,serif" font-size="14.00">update</text>
<polyline fill="none" stroke="black" points="0,-92.5 181,-92.5 "/>
<polyline fill="none" stroke="black" points="0,-68.5 181,-68.5 "/>
<text text-anchor="start" x="8" y="-53.3" font-family="Times,serif" font-size="14.00">_layout</text>
<text text-anchor="start" x="8" y="-38.3" font-family="Times,serif" font-size="14.00">_layout_from_proc</text>
<text text-anchor="start" x="8" y="-23.3" font-family="Times,serif" font-size="14.00">set_transaction</text>
<text text-anchor="start" x="8" y="-8.3" font-family="Times,serif" font-size="14.00">transaction_params</text>
</g>
</g>
</svg>
