<?xml version="1.0" encoding="UTF-8" standalone="no"?>
<!DOCTYPE svg PUBLIC "-//W3C//DTD SVG 1.1//EN"
 "http://www.w3.org/Graphics/SVG/1.1/DTD/svg11.dtd">
<!-- Generated by graphviz version 2.43.0 (0)
 -->
<!-- Title: models_diagram Pages: 1 -->
<svg width="935pt" height="378pt"
 viewBox="0.00 0.00 935.00 378.00" xmlns="http://www.w3.org/2000/svg" xmlns:xlink="http://www.w3.org/1999/xlink">
<g id="graph0" class="graph" transform="scale(1 1) rotate(0) translate(4 374)">
<title>models_diagram</title>
<polygon fill="transparent" stroke="transparent" points="-4,4 -4,-374 931,-374 931,4 -4,4"/>
<!-- _diagram_info -->
<g id="node1" class="node">
<title>_diagram_info</title>
<text text-anchor="start" x="8" y="-311.1" font-family="Times,serif" font-size="13.00">Models diagram</text>
<text text-anchor="start" x="8" y="-297.1" font-family="Times,serif" font-size="13.00">Date: Sep 05 2024 &#45; 15:06</text>
<text text-anchor="start" x="8" y="-283.1" font-family="Times,serif" font-size="13.00">Migration version: 20240814163052</text>
<text text-anchor="start" x="8" y="-269.1" font-family="Times,serif" font-size="13.00">Generated by RailRoady 1.6.0</text>
<text text-anchor="start" x="8" y="-255.1" font-family="Times,serif" font-size="13.00">http://railroady.prestonlee.com</text>
</g>
<!-- About -->
<g id="node2" class="node">
<title>About</title>
<path fill="none" stroke="black" d="M289.5,-233.5C289.5,-233.5 453.5,-233.5 453.5,-233.5 459.5,-233.5 465.5,-239.5 465.5,-245.5 465.5,-245.5 465.5,-327.5 465.5,-327.5 465.5,-333.5 459.5,-339.5 453.5,-339.5 453.5,-339.5 289.5,-339.5 289.5,-339.5 283.5,-339.5 277.5,-333.5 277.5,-327.5 277.5,-327.5 277.5,-245.5 277.5,-245.5 277.5,-239.5 283.5,-233.5 289.5,-233.5"/>
<text text-anchor="middle" x="371.5" y="-324.3" font-family="Times,serif" font-size="14.00">About</text>
<polyline fill="none" stroke="black" points="277.5,-316.5 465.5,-316.5 "/>
<text text-anchor="start" x="285.5" y="-301.3" font-family="Times,serif" font-size="14.00">id :INTEGER</text>
<text text-anchor="start" x="285.5" y="-286.3" font-family="Times,serif" font-size="14.00">title :varchar</text>
<text text-anchor="start" x="285.5" y="-271.3" font-family="Times,serif" font-size="14.00">body :TEXT</text>
<text text-anchor="start" x="285.5" y="-256.3" font-family="Times,serif" font-size="14.00">created_at :datetime(6)</text>
<text text-anchor="start" x="285.5" y="-241.3" font-family="Times,serif" font-size="14.00">updated_at :datetime(6)</text>
</g>
<!-- ApplicationRecord -->
<g id="node3" class="node">
<title>ApplicationRecord</title>
<ellipse fill="none" stroke="black" cx="579.5" cy="-286.5" rx="95.58" ry="18"/>
<text text-anchor="middle" x="579.5" y="-282.8" font-family="Times,serif" font-size="14.00">ApplicationRecord</text>
</g>
<!-- Transaction -->
<g id="node4" class="node">
<title>Transaction</title>
<path fill="none" stroke="black" d="M705.5,-203.5C705.5,-203.5 869.5,-203.5 869.5,-203.5 875.5,-203.5 881.5,-209.5 881.5,-215.5 881.5,-215.5 881.5,-357.5 881.5,-357.5 881.5,-363.5 875.5,-369.5 869.5,-369.5 869.5,-369.5 705.5,-369.5 705.5,-369.5 699.5,-369.5 693.5,-363.5 693.5,-357.5 693.5,-357.5 693.5,-215.5 693.5,-215.5 693.5,-209.5 699.5,-203.5 705.5,-203.5"/>
<text text-anchor="middle" x="787.5" y="-354.3" font-family="Times,serif" font-size="14.00">Transaction</text>
<polyline fill="none" stroke="black" points="693.5,-346.5 881.5,-346.5 "/>
<text text-anchor="start" x="701.5" y="-331.3" font-family="Times,serif" font-size="14.00">id :INTEGER</text>
<text text-anchor="start" x="701.5" y="-316.3" font-family="Times,serif" font-size="14.00">desc :varchar</text>
<text text-anchor="start" x="701.5" y="-301.3" font-family="Times,serif" font-size="14.00">date :date</text>
<text text-anchor="start" x="701.5" y="-286.3" font-family="Times,serif" font-size="14.00">category :varchar</text>
<text text-anchor="start" x="701.5" y="-271.3" font-family="Times,serif" font-size="14.00">amount :INTEGER</text>
<text text-anchor="start" x="701.5" y="-256.3" font-family="Times,serif" font-size="14.00">created_at :datetime(6)</text>
<text text-anchor="start" x="701.5" y="-241.3" font-family="Times,serif" font-size="14.00">updated_at :datetime(6)</text>
<text text-anchor="start" x="701.5" y="-226.3" font-family="Times,serif" font-size="14.00">income :boolean</text>
<text text-anchor="start" x="701.5" y="-211.3" font-family="Times,serif" font-size="14.00">user_id :INTEGER</text>
</g>
<!-- User -->
<g id="node5" class="node">
<title>User</title>
<path fill="none" stroke="black" d="M660,-0.5C660,-0.5 915,-0.5 915,-0.5 921,-0.5 927,-6.5 927,-12.5 927,-12.5 927,-154.5 927,-154.5 927,-160.5 921,-166.5 915,-166.5 915,-166.5 660,-166.5 660,-166.5 654,-166.5 648,-160.5 648,-154.5 648,-154.5 648,-12.5 648,-12.5 648,-6.5 654,-0.5 660,-0.5"/>
<text text-anchor="middle" x="787.5" y="-151.3" font-family="Times,serif" font-size="14.00">User</text>
<polyline fill="none" stroke="black" points="648,-143.5 927,-143.5 "/>
<text text-anchor="start" x="656" y="-128.3" font-family="Times,serif" font-size="14.00">id :INTEGER</text>
<text text-anchor="start" x="656" y="-113.3" font-family="Times,serif" font-size="14.00">email :varchar</text>
<text text-anchor="start" x="656" y="-98.3" font-family="Times,serif" font-size="14.00">encrypted_password :varchar</text>
<text text-anchor="start" x="656" y="-83.3" font-family="Times,serif" font-size="14.00">reset_password_token :varchar</text>
<text text-anchor="start" x="656" y="-68.3" font-family="Times,serif" font-size="14.00">reset_password_sent_at :datetime(6)</text>
<text text-anchor="start" x="656" y="-53.3" font-family="Times,serif" font-size="14.00">remember_created_at :datetime(6)</text>
<text text-anchor="start" x="656" y="-38.3" font-family="Times,serif" font-size="14.00">created_at :datetime(6)</text>
<text text-anchor="start" x="656" y="-23.3" font-family="Times,serif" font-size="14.00">updated_at :datetime(6)</text>
<text text-anchor="start" x="656" y="-8.3" font-family="Times,serif" font-size="14.00">name :varchar</text>
</g>
<!-- Transaction&#45;&gt;User -->
<g id="edge1" class="edge">
<title>Transaction&#45;&gt;User</title>
<path fill="none" stroke="#cb22c2" d="M787.5,-193.41C787.5,-187.83 787.5,-182.2 787.5,-176.61"/>
<polygon fill="#cb22c2" stroke="#cb22c2" points="787.5,-193.46 783,-203.46 787.5,-198.46 787.5,-203.46 787.5,-203.46 787.5,-203.46 787.5,-198.46 792,-203.46 787.5,-193.46 787.5,-193.46"/>
<polygon fill="#cb22c2" stroke="#cb22c2" points="787.5,-176.61 792,-166.61 787.5,-171.61 787.5,-166.61 787.5,-166.61 787.5,-166.61 787.5,-171.61 783,-166.61 787.5,-176.61 787.5,-176.61"/>
</g>
</g>
</svg>
