<?xml version="1.0" encoding="UTF-8" standalone="no"?>
<!DOCTYPE svg PUBLIC "-//W3C//DTD SVG 1.1//EN"
 "http://www.w3.org/Graphics/SVG/1.1/DTD/svg11.dtd">
<!-- Generated by graphviz version 2.43.0 (0)
 -->
<!-- Title: models_diagram Pages: 1 -->
<svg width="720pt" height="158pt"
 viewBox="0.00 0.00 720.14 158.00" xmlns="http://www.w3.org/2000/svg" xmlns:xlink="http://www.w3.org/1999/xlink">
<g id="graph0" class="graph" transform="scale(1 1) rotate(0) translate(4 154)">
<title>models_diagram</title>
<polygon fill="transparent" stroke="transparent" points="-4,4 -4,-154 716.14,-154 716.14,4 -4,4"/>
<!-- _diagram_info -->
<g id="node1" class="node">
<title>_diagram_info</title>
<text text-anchor="start" x="8" y="-135.6" font-family="Times,serif" font-size="13.00">Models diagram</text>
<text text-anchor="start" x="8" y="-121.6" font-family="Times,serif" font-size="13.00">Date: Sep 05 2024 &#45; 15:06</text>
<text text-anchor="start" x="8" y="-107.6" font-family="Times,serif" font-size="13.00">Migration version: 20240814163052</text>
<text text-anchor="start" x="8" y="-93.6" font-family="Times,serif" font-size="13.00">Generated by RailRoady 1.6.0</text>
<text text-anchor="start" x="8" y="-79.6" font-family="Times,serif" font-size="13.00">http://railroady.prestonlee.com</text>
</g>
<!-- About -->
<g id="node2" class="node">
<title>About</title>
<ellipse fill="none" stroke="black" cx="315.5" cy="-111" rx="38.19" ry="18"/>
<text text-anchor="middle" x="315.5" y="-107.3" font-family="Times,serif" font-size="14.00">About</text>
</g>
<!-- ApplicationRecord -->
<g id="node3" class="node">
<title>ApplicationRecord</title>
<ellipse fill="none" stroke="black" cx="467.5" cy="-111" rx="95.58" ry="18"/>
<text text-anchor="middle" x="467.5" y="-107.3" font-family="Times,serif" font-size="14.00">ApplicationRecord</text>
</g>
<!-- Transaction -->
<g id="node4" class="node">
<title>Transaction</title>
<ellipse fill="none" stroke="black" cx="646.5" cy="-111" rx="65.79" ry="18"/>
<text text-anchor="middle" x="646.5" y="-107.3" font-family="Times,serif" font-size="14.00">Transaction</text>
</g>
<!-- User -->
<g id="node5" class="node">
<title>User</title>
<ellipse fill="none" stroke="black" cx="646.5" cy="-18" rx="33.29" ry="18"/>
<text text-anchor="middle" x="646.5" y="-14.3" font-family="Times,serif" font-size="14.00">User</text>
</g>
<!-- Transaction&#45;&gt;User -->
<g id="edge1" class="edge">
<title>Transaction&#45;&gt;User</title>
<path fill="none" stroke="#ccc424" d="M646.5,-82.55C646.5,-71.08 646.5,-57.79 646.5,-46.34"/>
<polygon fill="#ccc424" stroke="#ccc424" points="646.5,-82.88 642,-92.88 646.5,-87.88 646.5,-92.88 646.5,-92.88 646.5,-92.88 646.5,-87.88 651,-92.88 646.5,-82.88 646.5,-82.88"/>
<polygon fill="#ccc424" stroke="#ccc424" points="646.5,-46.04 651,-36.04 646.5,-41.04 646.5,-36.04 646.5,-36.04 646.5,-36.04 646.5,-41.04 642,-36.04 646.5,-46.04 646.5,-46.04"/>
</g>
</g>
</svg>
